<svg width="14" height="10" viewBox="0 0 14 10" fill="none" xmlns="http://www.w3.org/2000/svg">
<path d="M5.61807 9.27958C5.4868 9.27984 5.35678 9.25419 5.23545 9.20408C5.11412 9.15397 5.00389 9.08039 4.91107 8.98758L0.669068 4.74458C0.573495 4.6524 0.497236 4.54211 0.444743 4.42014C0.392249 4.29817 0.364572 4.16697 0.363325 4.0342C0.362079 3.90142 0.387288 3.76972 0.437482 3.64679C0.487676 3.52386 0.561849 3.41216 0.655675 3.3182C0.7495 3.22424 0.861098 3.14991 0.983958 3.09954C1.10682 3.04918 1.23848 3.02378 1.37126 3.02484C1.50403 3.0259 1.63527 3.05339 1.75731 3.10571C1.87935 3.15803 1.98975 3.23413 2.08207 3.32958L5.61707 6.86458L11.9821 0.501577C12.1696 0.313936 12.4239 0.208468 12.6892 0.208374C12.9545 0.20828 13.2089 0.313569 13.3966 0.501077C13.5842 0.688585 13.6897 0.942953 13.6898 1.20822C13.6899 1.47349 13.5846 1.72794 13.3971 1.91558L6.32507 8.98758C6.23225 9.08039 6.12201 9.15397 6.00069 9.20408C5.87936 9.25419 5.74933 9.27984 5.61807 9.27958Z" fill="#2FAB73"/>
</svg>
